<svg width="401" height="94" viewBox="0 0 401 94" fill="none" xmlns="http://www.w3.org/2000/svg">
<path d="M160.384 46.7279C160.385 53.3492 158.422 59.8219 154.744 65.3275C151.065 70.8332 145.837 75.1245 139.72 77.6588C133.603 80.193 126.872 80.8564 120.378 79.565C113.884 78.2736 107.918 75.0855 103.236 70.4038C98.554 65.7221 95.3654 59.757 94.0734 53.2631C92.7815 46.7691 93.4442 40.0378 95.9779 33.9205C98.5117 27.8032 102.802 22.5746 108.308 18.896C113.813 15.2174 120.286 13.2539 126.907 13.2539C135.786 13.2542 144.3 16.7813 150.578 23.0594C156.857 29.3375 160.384 37.8523 160.384 46.7309" fill="#FFD0CC"/>
<path d="M160.895 46.7279C160.896 53.3492 158.933 59.8219 155.255 65.3275C151.576 70.8332 146.348 75.1245 140.231 77.6588C134.114 80.193 127.383 80.8564 120.889 79.565C114.395 78.2736 108.429 75.0855 103.747 70.4038C99.0651 65.7221 95.8764 59.757 94.5845 53.2631C93.2925 46.7691 93.9553 40.0378 96.489 33.9205C99.0227 27.8032 103.314 22.5746 108.819 18.896C114.324 15.2174 120.797 13.2539 127.418 13.2539C136.297 13.2542 144.811 16.7813 151.09 23.0594C157.368 29.3375 160.895 37.8523 160.895 46.7309" fill="#FFD0CC"/>
<path d="M161.409 46.7279C161.41 53.349 159.447 59.8216 155.769 65.3272C152.091 70.8328 146.863 75.1241 140.746 77.6585C134.629 80.1928 127.898 80.8564 121.404 79.5652C114.91 78.2741 108.945 75.0863 104.262 70.4048C99.58 65.7234 96.3911 59.7587 95.0988 53.2649C93.8065 46.7711 94.4689 40.0399 97.0021 33.9226C99.5354 27.8052 103.826 22.5765 109.331 18.8975C114.836 15.2185 121.308 13.2545 127.929 13.2539C136.808 13.2534 145.323 16.7797 151.601 23.0573C157.88 29.3348 161.408 37.8493 161.409 46.7279Z" fill="#FFD0CC"/>
<path d="M161.917 46.7279C161.918 53.3492 159.955 59.8219 156.277 65.3275C152.598 70.8332 147.37 75.1245 141.253 77.6588C135.136 80.193 128.405 80.8564 121.911 79.565C115.417 78.2736 109.451 75.0855 104.769 70.4038C100.087 65.7221 96.8984 59.757 95.6064 53.2631C94.3145 46.7691 94.9773 40.0378 97.511 33.9205C100.045 27.8032 104.336 22.5746 109.841 18.896C115.346 15.2174 121.819 13.2539 128.44 13.2539C137.319 13.2542 145.833 16.7813 152.111 23.0594C158.39 29.3375 161.917 37.8523 161.917 46.7309" fill="#FFD0CC"/>
<path d="M162.427 46.7279C162.428 53.3492 160.465 59.8221 156.786 65.3278C153.108 70.8335 147.88 75.1248 141.763 77.659C135.645 80.1931 128.914 80.8564 122.42 79.5649C115.926 78.2733 109.961 75.085 105.279 70.4031C100.596 65.7212 97.4079 59.7559 96.1162 53.2618C94.8245 46.7677 95.4875 40.0364 98.0215 33.9191C100.556 27.8019 104.847 22.5734 110.352 18.895C115.858 15.2166 122.331 13.2535 128.952 13.2539C137.831 13.2542 146.345 16.7813 152.624 23.0594C158.902 29.3375 162.429 37.8523 162.429 46.7309" fill="#FFD0CC"/>
<path d="M162.938 46.7279C162.939 53.3492 160.976 59.8219 157.298 65.3275C153.619 70.8332 148.391 75.1245 142.274 77.6588C136.157 80.193 129.426 80.8564 122.932 79.565C116.438 78.2736 110.472 75.0855 105.79 70.4038C101.108 65.7221 97.9194 59.757 96.6274 53.2631C95.3355 46.7691 95.9983 40.0378 98.532 33.9205C101.066 27.8032 105.356 22.5746 110.862 18.896C116.367 15.2174 122.84 13.2539 129.461 13.2539C138.34 13.2542 146.854 16.7813 153.132 23.0594C159.411 29.3375 162.938 37.8523 162.938 46.7309" fill="#FFD0CC"/>
<path d="M163.449 46.7279C163.45 53.3492 161.487 59.8219 157.809 65.3275C154.13 70.8332 148.902 75.1245 142.785 77.6588C136.668 80.193 129.937 80.8564 123.443 79.565C116.949 78.2736 110.983 75.0855 106.301 70.4038C101.619 65.7221 98.4304 59.757 97.1385 53.2631C95.8465 46.7691 96.5093 40.0378 99.043 33.9205C101.577 27.8032 105.868 22.5746 111.373 18.896C116.878 15.2174 123.351 13.2539 129.972 13.2539C138.851 13.2542 147.365 16.7813 153.644 23.0594C159.922 29.3375 163.449 37.8523 163.449 46.7309" fill="#FFD0CC"/>
<path d="M163.959 46.7279C163.959 53.3489 161.996 59.8213 158.318 65.3266C154.64 70.832 149.412 75.123 143.295 77.657C137.178 80.1911 130.448 80.8544 123.954 79.563C117.46 78.2716 111.495 75.0836 106.813 70.4021C102.131 65.7206 98.9424 59.7558 97.6505 53.2621C96.3585 46.7684 97.0212 40.0374 99.5547 33.9204C102.088 27.8033 106.379 22.5749 111.884 18.8963C117.389 15.2177 123.861 13.2541 130.482 13.2539C139.361 13.2542 147.875 16.7813 154.153 23.0594C160.432 29.3375 163.959 37.8523 163.959 46.7309" fill="#FFD0CC"/>
<path d="M164.472 46.7279C164.473 53.3492 162.51 59.8219 158.832 65.3275C155.153 70.8332 149.925 75.1245 143.808 77.6588C137.691 80.193 130.96 80.8564 124.466 79.565C117.972 78.2736 112.006 75.0855 107.324 70.4038C102.642 65.7221 99.4534 59.757 98.1614 53.2631C96.8695 46.7691 97.5322 40.0378 100.066 33.9205C102.6 27.8032 106.89 22.5746 112.396 18.896C117.901 15.2174 124.374 13.2539 130.995 13.2539C139.874 13.2542 148.388 16.7813 154.666 23.0594C160.945 29.3375 164.472 37.8523 164.472 46.7309" fill="#FFD0CC"/>
<path d="M164.983 46.7279C164.984 53.3492 163.021 59.8219 159.343 65.3275C155.664 70.8332 150.436 75.1245 144.319 77.6588C138.202 80.193 131.471 80.8564 124.977 79.565C118.483 78.2736 112.517 75.0855 107.835 70.4038C103.153 65.7221 99.9644 59.757 98.6724 53.2631C97.3805 46.7691 98.0432 40.0378 100.577 33.9205C103.111 27.8032 107.401 22.5746 112.907 18.896C118.412 15.2174 124.885 13.2539 131.506 13.2539C140.385 13.2542 148.899 16.7813 155.177 23.0594C161.456 29.3375 164.983 37.8523 164.983 46.7309" fill="#FFD0CC"/>
<path d="M165.494 46.7279C165.495 53.3492 163.532 59.8219 159.854 65.3275C156.175 70.8332 150.947 75.1245 144.83 77.6588C138.713 80.193 131.982 80.8564 125.488 79.565C118.994 78.2736 113.028 75.0855 108.346 70.4038C103.664 65.7221 100.475 59.757 99.1835 53.2631C97.8915 46.7691 98.5543 40.0378 101.088 33.9205C103.622 27.8032 107.913 22.5746 113.418 18.896C118.923 15.2174 125.396 13.2539 132.017 13.2539C140.895 13.2542 149.409 16.7809 155.687 23.0583C161.965 29.3358 165.493 37.8499 165.494 46.7279Z" fill="#FFD0CC"/>
<path d="M166.005 46.7279C166.006 53.3491 164.043 59.8218 160.365 65.3274C156.687 70.8331 151.458 75.1244 145.341 77.6587C139.224 80.1929 132.493 80.8564 125.999 79.5651C119.505 78.2738 113.54 75.0858 108.858 70.4041C104.175 65.7225 100.987 59.7576 99.6946 53.2637C98.4025 46.7697 99.0651 40.0385 101.599 33.9212C104.132 27.8039 108.423 22.5752 113.928 18.8965C119.433 15.2177 125.906 13.2541 132.527 13.2539C141.405 13.2539 149.92 16.7805 156.198 23.058C162.476 29.3354 166.004 37.8497 166.005 46.7279Z" fill="#FFD0CC"/>
<path d="M166.515 46.7279C166.516 53.3492 164.553 59.8219 160.875 65.3275C157.196 70.8332 151.968 75.1245 145.851 77.6588C139.734 80.193 133.003 80.8564 126.509 79.565C120.015 78.2736 114.049 75.0855 109.367 70.4038C104.685 65.7221 101.496 59.757 100.204 53.2631C98.9125 46.7691 99.5753 40.0378 102.109 33.9205C104.643 27.8032 108.934 22.5746 114.439 18.896C119.944 15.2174 126.417 13.2539 133.038 13.2539C141.917 13.2542 150.431 16.7813 156.71 23.0594C162.988 29.3375 166.515 37.8523 166.515 46.7309" fill="#FFD0CC"/>
<path d="M167.026 46.7279C167.027 53.3492 165.064 59.8219 161.386 65.3275C157.707 70.8332 152.479 75.1245 146.362 77.6588C140.245 80.193 133.514 80.8564 127.02 79.565C120.526 78.2736 114.56 75.0855 109.878 70.4038C105.196 65.7221 102.007 59.757 100.715 53.2631C99.4235 46.7691 100.086 40.0378 102.62 33.9205C105.154 27.8032 109.445 22.5746 114.95 18.896C120.455 15.2174 126.928 13.2539 133.549 13.2539C142.428 13.2542 150.942 16.7813 157.22 23.0594C163.499 29.3375 167.026 37.8523 167.026 46.7309" fill="#FFD0CC"/>
<path d="M167.537 46.7279C167.538 53.3492 165.575 59.8219 161.897 65.3275C158.218 70.8332 152.99 75.1245 146.873 77.6588C140.756 80.193 134.025 80.8564 127.531 79.565C121.037 78.2736 115.071 75.0855 110.389 70.4038C105.707 65.7221 102.518 59.757 101.226 53.2631C99.9345 46.7691 100.597 40.0378 103.131 33.9205C105.665 27.8032 109.955 22.5746 115.461 18.896C120.966 15.2174 127.439 13.2539 134.06 13.2539C142.939 13.2542 151.453 16.7813 157.731 23.0594C164.01 29.3375 167.537 37.8523 167.537 46.7309" fill="#FFD0CC"/>
<path d="M168.047 46.7279C168.048 53.3492 166.085 59.8219 162.407 65.3275C158.728 70.8332 153.5 75.1245 147.383 77.6588C141.266 80.193 134.535 80.8564 128.041 79.565C121.547 78.2736 115.581 75.0855 110.899 70.4038C106.217 65.7221 103.028 59.757 101.736 53.2631C100.444 46.7691 101.107 40.0378 103.641 33.9205C106.175 27.8032 110.466 22.5746 115.971 18.896C121.476 15.2174 127.949 13.2539 134.57 13.2539C143.449 13.2542 151.963 16.7813 158.241 23.0594C164.52 29.3375 168.047 37.8523 168.047 46.7309" fill="#FFD0CC"/>
<path d="M168.558 46.7279C168.559 53.3492 166.596 59.8219 162.918 65.3275C159.239 70.8332 154.011 75.1245 147.894 77.6588C141.777 80.193 135.046 80.8564 128.552 79.565C122.058 78.2736 116.092 75.0855 111.41 70.4038C106.728 65.7221 103.539 59.757 102.247 53.2631C100.955 46.7691 101.618 40.0378 104.152 33.9205C106.686 27.8032 110.976 22.5746 116.482 18.896C121.987 15.2174 128.46 13.2539 135.081 13.2539C143.96 13.2542 152.474 16.7813 158.752 23.0594C165.031 29.3375 168.558 37.8523 168.558 46.7309" fill="#FFD0CC"/>
<path d="M169.069 46.7279C169.07 53.3492 167.107 59.8219 163.429 65.3275C159.75 70.8332 154.522 75.1245 148.405 77.6588C142.288 80.193 135.557 80.8564 129.063 79.565C122.569 78.2736 116.603 75.0855 111.921 70.4038C107.239 65.7221 104.05 59.757 102.758 53.2631C101.467 46.7691 102.129 40.0378 104.663 33.9205C107.197 27.8032 111.488 22.5746 116.993 18.896C122.498 15.2174 128.971 13.2539 135.592 13.2539C144.471 13.2542 152.985 16.7813 159.264 23.0594C165.542 29.3375 169.069 37.8523 169.069 46.7309" fill="#FFD0CC"/>
<path d="M169.58 46.7279C169.581 53.3492 167.618 59.8219 163.94 65.3275C160.261 70.8332 155.033 75.1245 148.916 77.6588C142.799 80.193 136.068 80.8564 129.574 79.565C123.08 78.2736 117.114 75.0855 112.432 70.4038C107.75 65.7221 104.561 59.757 103.269 53.2631C101.978 46.7691 102.64 40.0378 105.174 33.9205C107.708 27.8032 111.999 22.5746 117.504 18.896C123.009 15.2174 129.482 13.2539 136.103 13.2539C144.982 13.2542 153.496 16.7813 159.775 23.0594C166.053 29.3375 169.58 37.8523 169.58 46.7309" fill="#FFD0CC"/>
<path d="M170.09 46.7279C170.091 53.3492 168.128 59.8219 164.45 65.3275C160.771 70.8332 155.543 75.1245 149.426 77.6588C143.309 80.193 136.578 80.8564 130.084 79.565C123.59 78.2736 117.624 75.0855 112.942 70.4038C108.26 65.7221 105.071 59.757 103.779 53.2631C102.488 46.7691 103.15 40.0378 105.684 33.9205C108.218 27.8032 112.509 22.5746 118.014 18.896C123.519 15.2174 129.992 13.2539 136.613 13.2539C145.492 13.2542 154.006 16.7813 160.285 23.0594C166.563 29.3375 170.09 37.8523 170.09 46.7309" fill="#FFD0CC"/>
<path d="M170.602 46.7279C170.603 53.3492 168.64 59.822 164.961 65.3277C161.283 70.8333 156.055 75.1246 149.938 77.6589C143.821 80.1931 137.09 80.8564 130.595 79.5649C124.101 78.2735 118.136 75.0853 113.454 70.4034C108.772 65.7216 105.583 59.7565 104.291 53.2624C102.999 46.7684 103.662 40.0371 106.196 33.9198C108.73 27.8025 113.021 22.574 118.527 18.8955C124.032 15.217 130.505 13.2537 137.126 13.2539C146.004 13.2547 154.518 16.7816 160.795 23.059C167.073 29.3363 170.601 37.8501 170.602 46.7279Z" fill="#FFD0CC"/>
<path d="M171.114 46.7279C171.115 53.3492 169.152 59.8219 165.474 65.3275C161.795 70.8332 156.567 75.1245 150.45 77.6588C144.333 80.193 137.602 80.8564 131.108 79.565C124.614 78.2736 118.648 75.0855 113.966 70.4038C109.284 65.7221 106.095 59.757 104.803 53.2631C103.511 46.7691 104.174 40.0378 106.708 33.9205C109.242 27.8032 113.533 22.5746 119.038 18.896C124.543 15.2174 131.016 13.2539 137.637 13.2539C146.515 13.2542 155.029 16.7809 161.307 23.0583C167.585 29.3358 171.113 37.8499 171.114 46.7279Z" fill="#FFD0CC"/>
<path d="M171.625 46.7279C171.626 53.3491 169.663 59.8217 165.985 65.3273C162.307 70.833 157.079 75.1243 150.962 77.6586C144.845 80.1929 138.114 80.8564 131.62 79.5652C125.125 78.274 119.16 75.086 114.478 70.4045C109.796 65.723 106.607 59.7581 105.315 53.2643C104.023 46.7704 104.685 40.0392 107.218 33.9219C109.752 27.8046 114.042 22.5759 119.547 18.897C125.052 15.2181 131.525 13.2543 138.146 13.2539C147.025 13.2542 155.539 16.7813 161.817 23.0594C168.096 29.3375 171.623 37.8523 171.623 46.7309" fill="#FFD0CC"/>
<path d="M172.135 46.7279C172.136 53.3492 170.173 59.8219 166.495 65.3275C162.816 70.8332 157.588 75.1245 151.471 77.6588C145.354 80.193 138.623 80.8564 132.129 79.565C125.635 78.2736 119.669 75.0855 114.987 70.4038C110.305 65.7221 107.116 59.757 105.824 53.2631C104.532 46.7691 105.195 40.0378 107.729 33.9205C110.263 27.8032 114.554 22.5746 120.059 18.896C125.564 15.2174 132.037 13.2539 138.658 13.2539C147.537 13.2542 156.051 16.7813 162.33 23.0594C168.608 29.3375 172.135 37.8523 172.135 46.7309" fill="#FFD0CC"/>
<path d="M172.646 46.7279C172.647 53.3492 170.684 59.8219 167.006 65.3275C163.327 70.8332 158.099 75.1245 151.982 77.6588C145.865 80.193 139.134 80.8564 132.64 79.565C126.146 78.2736 120.18 75.0855 115.498 70.4038C110.816 65.7221 107.627 59.757 106.335 53.2631C105.043 46.7691 105.706 40.0378 108.24 33.9205C110.774 27.8032 115.065 22.5746 120.57 18.896C126.075 15.2174 132.548 13.2539 139.169 13.2539C148.048 13.2542 156.562 16.7813 162.84 23.0594C169.119 29.3375 172.646 37.8523 172.646 46.7309" fill="#FFD0CC"/>
<path d="M173.157 46.7279C173.158 53.3492 171.195 59.8219 167.517 65.3275C163.838 70.8332 158.61 75.1245 152.493 77.6588C146.376 80.193 139.645 80.8564 133.151 79.565C126.657 78.2736 120.691 75.0855 116.009 70.4038C111.327 65.7221 108.138 59.757 106.846 53.2631C105.554 46.7691 106.217 40.0378 108.751 33.9205C111.285 27.8032 115.575 22.5746 121.081 18.896C126.586 15.2174 133.059 13.2539 139.68 13.2539C148.559 13.2542 157.073 16.7813 163.351 23.0594C169.63 29.3375 173.157 37.8523 173.157 46.7309" fill="#FFD0CC"/>
<path d="M173.668 46.7279C173.669 53.3492 171.706 59.8219 168.028 65.3275C164.349 70.8332 159.121 75.1245 153.004 77.6588C146.887 80.193 140.156 80.8564 133.662 79.565C127.168 78.2736 121.202 75.0855 116.52 70.4038C111.838 65.7221 108.649 59.757 107.357 53.2631C106.066 46.7691 106.728 40.0378 109.262 33.9205C111.796 27.8032 116.087 22.5746 121.592 18.896C127.097 15.2174 133.57 13.2539 140.191 13.2539C149.07 13.2542 157.584 16.7813 163.863 23.0594C170.141 29.3375 173.668 37.8523 173.668 46.7309" fill="#FFD0CC"/>
<path d="M174.178 46.7279C174.179 53.3492 172.216 59.8219 168.538 65.3275C164.859 70.8332 159.631 75.1245 153.514 77.6588C147.397 80.193 140.666 80.8564 134.172 79.565C127.678 78.2736 121.712 75.0855 117.03 70.4038C112.348 65.7221 109.159 59.757 107.867 53.2631C106.575 46.7691 107.238 40.0378 109.772 33.9205C112.306 27.8032 116.596 22.5746 122.102 18.896C127.607 15.2174 134.08 13.2539 140.701 13.2539C149.58 13.2542 158.094 16.7813 164.372 23.0594C170.651 29.3375 174.178 37.8523 174.178 46.7309" fill="#FFD0CC"/>
<path d="M174.689 46.7279C174.69 53.3492 172.727 59.8219 169.049 65.3275C165.37 70.8332 160.142 75.1245 154.025 77.6588C147.908 80.193 141.177 80.8564 134.683 79.565C128.189 78.2736 122.223 75.0855 117.541 70.4038C112.859 65.7221 109.67 59.757 108.378 53.2631C107.087 46.7691 107.749 40.0378 110.283 33.9205C112.817 27.8032 117.108 22.5746 122.613 18.896C128.118 15.2174 134.591 13.2539 141.212 13.2539C150.091 13.2542 158.605 16.7813 164.884 23.0594C171.162 29.3375 174.689 37.8523 174.689 46.7309" fill="#FFD0CC"/>
<path d="M175.198 46.7279C175.199 53.3492 173.236 59.8221 169.557 65.3278C165.879 70.8335 160.651 75.1248 154.534 77.659C148.416 80.1931 141.685 80.8564 135.191 79.5649C128.697 78.2733 122.732 75.085 118.05 70.4031C113.367 65.7212 110.179 59.7559 108.887 53.2618C107.595 46.7677 108.259 40.0364 110.793 33.9191C113.327 27.8019 117.618 22.5734 123.123 18.895C128.629 15.2166 135.102 13.2535 141.723 13.2539C150.601 13.2547 159.115 16.7816 165.392 23.059C171.67 29.3364 175.197 37.8502 175.198 46.7279Z" fill="#FFD0CC"/>
<path d="M175.711 46.7279C175.712 53.3492 173.749 59.8219 170.071 65.3275C166.392 70.8332 161.164 75.1245 155.047 77.6588C148.93 80.193 142.199 80.8564 135.705 79.565C129.211 78.2736 123.245 75.0855 118.563 70.4038C113.881 65.7221 110.692 59.757 109.4 53.2631C108.108 46.7691 108.771 40.0378 111.305 33.9205C113.839 27.8032 118.13 22.5746 123.635 18.896C129.14 15.2174 135.613 13.2539 142.234 13.2539C151.113 13.2542 159.627 16.7813 165.905 23.0594C172.184 29.3375 175.711 37.8523 175.711 46.7309" fill="#FFD0CC"/>
<path d="M176.221 46.7279C176.222 53.349 174.259 59.8216 170.581 65.3272C166.903 70.8328 161.675 75.1241 155.558 77.6585C149.441 80.1928 142.71 80.8564 136.216 79.5652C129.722 78.2741 123.757 75.0863 119.074 70.4048C114.392 65.7234 111.203 59.7587 109.911 53.2649C108.619 46.7711 109.281 40.0399 111.814 33.9226C114.347 27.8052 118.638 22.5765 124.143 18.8975C129.648 15.2185 136.12 13.2545 142.741 13.2539C151.62 13.2534 160.135 16.7797 166.413 23.0573C172.692 29.3348 176.22 37.8493 176.221 46.7279Z" fill="#FFD0CC"/>
<path d="M176.732 46.7279C176.733 53.3492 174.77 59.8219 171.092 65.3275C167.413 70.8332 162.185 75.1245 156.068 77.6588C149.951 80.193 143.22 80.8564 136.726 79.565C130.232 78.2736 124.266 75.0855 119.584 70.4038C114.902 65.7221 111.713 59.757 110.421 53.2631C109.129 46.7691 109.792 40.0378 112.326 33.9205C114.86 27.8032 119.151 22.5746 124.656 18.896C130.161 15.2174 136.634 13.2539 143.255 13.2539C152.134 13.2542 160.648 16.7813 166.926 23.0594C173.205 29.3375 176.732 37.8523 176.732 46.7309" fill="#FFD0CC"/>
<path d="M177.243 46.7279C177.244 53.3492 175.281 59.8219 171.603 65.3275C167.924 70.8332 162.696 75.1245 156.579 77.6588C150.462 80.193 143.731 80.8564 137.237 79.565C130.743 78.2736 124.777 75.0855 120.095 70.4038C115.413 65.7221 112.224 59.757 110.932 53.2631C109.64 46.7691 110.303 40.0378 112.837 33.9205C115.371 27.8032 119.661 22.5746 125.167 18.896C130.672 15.2174 137.145 13.2539 143.766 13.2539C152.645 13.2542 161.159 16.7813 167.437 23.0594C173.716 29.3375 177.243 37.8523 177.243 46.7309" fill="#FFD0CC"/>
<path d="M177.755 46.7279C177.756 53.3492 175.793 59.8219 172.115 65.3275C168.436 70.8332 163.208 75.1245 157.091 77.6588C150.974 80.193 144.243 80.8564 137.749 79.565C131.255 78.2736 125.289 75.0855 120.607 70.4038C115.925 65.7221 112.736 59.757 111.444 53.2631C110.152 46.7691 110.815 40.0378 113.349 33.9205C115.883 27.8032 120.174 22.5746 125.679 18.896C131.184 15.2174 137.657 13.2539 144.278 13.2539C153.157 13.2542 161.671 16.7813 167.95 23.0594C174.228 29.3375 177.755 37.8523 177.755 46.7309" fill="#FFD0CC"/>
<path d="M178.266 46.7279C178.267 53.3492 176.304 59.8219 172.626 65.3275C168.947 70.8332 163.719 75.1245 157.602 77.6588C151.485 80.193 144.754 80.8564 138.26 79.565C131.766 78.2736 125.8 75.0855 121.118 70.4038C116.436 65.7221 113.247 59.757 111.955 53.2631C110.663 46.7691 111.326 40.0378 113.86 33.9205C116.394 27.8032 120.684 22.5746 126.19 18.896C131.695 15.2174 138.168 13.2539 144.789 13.2539C153.668 13.2542 162.182 16.7813 168.46 23.0594C174.739 29.3375 178.266 37.8523 178.266 46.7309" fill="#FFD0CC"/>
<path d="M178.777 46.7279C178.778 53.3492 176.815 59.8219 173.137 65.3275C169.458 70.8332 164.23 75.1245 158.113 77.6588C151.996 80.193 145.265 80.8564 138.771 79.565C132.277 78.2736 126.311 75.0855 121.629 70.4038C116.947 65.7221 113.758 59.757 112.466 53.2631C111.174 46.7691 111.837 40.0378 114.371 33.9205C116.905 27.8032 121.195 22.5746 126.701 18.896C132.206 15.2174 138.679 13.2539 145.3 13.2539C154.179 13.2542 162.693 16.7813 168.971 23.0594C175.25 29.3375 178.777 37.8523 178.777 46.7309" fill="#FFD0CC"/>
<path d="M179.288 46.7279C179.289 53.3492 177.326 59.8219 173.648 65.3275C169.969 70.8332 164.741 75.1245 158.624 77.6588C152.507 80.193 145.776 80.8564 139.282 79.565C132.788 78.2736 126.822 75.0855 122.14 70.4038C117.458 65.7221 114.269 59.757 112.977 53.2631C111.686 46.7691 112.348 40.0378 114.882 33.9205C117.416 27.8032 121.707 22.5746 127.212 18.896C132.717 15.2174 139.19 13.2539 145.811 13.2539C154.69 13.2542 163.204 16.7813 169.483 23.0594C175.761 29.3375 179.288 37.8523 179.288 46.7309" fill="#FFD0CC"/>
<path d="M179.794 46.7279C179.795 53.3493 177.832 59.8222 174.153 65.328C170.475 70.8337 165.247 75.125 159.129 77.6591C153.012 80.1933 146.281 80.8564 139.786 79.5647C133.292 78.273 127.327 75.0845 122.645 70.4024C117.963 65.7202 114.774 59.7548 113.483 53.2606C112.191 46.7663 112.855 40.035 115.389 33.9177C117.923 27.8005 122.215 22.5722 127.721 18.8941C133.227 15.2159 139.7 13.2531 146.321 13.2539C155.198 13.2552 163.712 16.7824 169.989 23.0597C176.266 29.3371 179.793 37.8505 179.794 46.7279Z" fill="#FFD0CC"/>
<path d="M180.309 46.7279C180.31 53.3492 178.347 59.8219 174.669 65.3275C170.99 70.8332 165.762 75.1245 159.645 77.6588C153.528 80.193 146.797 80.8564 140.303 79.565C133.809 78.2736 127.843 75.0855 123.161 70.4038C118.479 65.7221 115.29 59.757 113.998 53.2631C112.707 46.7691 113.369 40.0378 115.903 33.9205C118.437 27.8032 122.728 22.5746 128.233 18.896C133.738 15.2174 140.211 13.2539 146.832 13.2539C155.711 13.2542 164.225 16.7813 170.504 23.0594C176.782 29.3375 180.309 37.8523 180.309 46.7309" fill="#FFD0CC"/>
<path d="M180.82 46.7279C180.821 53.3489 178.858 59.8215 175.18 65.327C171.502 70.8326 166.274 75.1239 160.157 77.6583C154.041 80.1927 147.31 80.8564 140.816 79.5654C134.322 78.2744 128.356 75.0868 123.674 70.4055C118.992 65.7243 115.803 59.7598 114.51 53.2661C113.218 46.7725 113.88 40.0414 116.413 33.924C118.945 27.8066 123.236 22.5777 128.74 18.8984C134.245 15.2192 140.717 13.2549 147.338 13.2539C156.217 13.2542 164.731 16.7813 171.009 23.0594C177.288 29.3375 180.815 37.8523 180.815 46.7309" fill="#FFD0CC"/>
<path d="M181.331 46.7279C181.332 53.3492 179.369 59.8219 175.691 65.3275C172.012 70.8332 166.784 75.1245 160.667 77.6588C154.55 80.193 147.819 80.8564 141.325 79.565C134.831 78.2736 128.865 75.0855 124.183 70.4038C119.501 65.7221 116.312 59.757 115.02 53.2631C113.728 46.7691 114.391 40.0378 116.925 33.9205C119.459 27.8032 123.75 22.5746 129.255 18.896C134.76 15.2174 141.233 13.2539 147.854 13.2539C156.733 13.2542 165.247 16.7813 171.525 23.0594C177.804 29.3375 181.331 37.8523 181.331 46.7309" fill="#FFD0CC"/>
<path d="M181.842 46.7279C181.843 53.3492 179.88 59.8219 176.202 65.3275C172.523 70.8332 167.295 75.1245 161.178 77.6588C155.061 80.193 148.33 80.8564 141.836 79.565C135.342 78.2736 129.376 75.0855 124.694 70.4038C120.012 65.7221 116.823 59.757 115.531 53.2631C114.239 46.7691 114.902 40.0378 117.436 33.9205C119.97 27.8032 124.26 22.5746 129.766 18.896C135.271 15.2174 141.744 13.2539 148.365 13.2539C157.243 13.2542 165.757 16.7809 172.035 23.0583C178.313 29.3358 181.841 37.8499 181.842 46.7279Z" fill="#FFD0CC"/>
<path d="M182.352 46.7279C182.353 53.3492 180.39 59.8219 176.712 65.3275C173.033 70.8332 167.805 75.1245 161.688 77.6588C155.571 80.193 148.84 80.8564 142.346 79.565C135.852 78.2736 129.886 75.0855 125.204 70.4038C120.522 65.7221 117.333 59.757 116.041 53.2631C114.749 46.7691 115.412 40.0378 117.946 33.9205C120.48 27.8032 124.771 22.5746 130.276 18.896C135.781 15.2174 142.254 13.2539 148.875 13.2539C157.754 13.2542 166.268 16.7813 172.546 23.0594C178.825 29.3375 182.352 37.8523 182.352 46.7309" fill="#FFD0CC"/>
<path d="M182.863 46.7279C182.864 53.3492 180.901 59.8219 177.223 65.3275C173.544 70.8332 168.316 75.1245 162.199 77.6588C156.082 80.193 149.351 80.8564 142.857 79.565C136.363 78.2736 130.397 75.0855 125.715 70.4038C121.033 65.7221 117.844 59.757 116.552 53.2631C115.26 46.7691 115.923 40.0378 118.457 33.9205C120.991 27.8032 125.281 22.5746 130.787 18.896C136.292 15.2174 142.765 13.2539 149.386 13.2539C158.265 13.2542 166.779 16.7813 173.057 23.0594C179.336 29.3375 182.863 37.8523 182.863 46.7309" fill="#FFD0CC"/>
<path d="M183.374 46.7279C183.375 53.3492 181.412 59.8219 177.734 65.3275C174.055 70.8332 168.827 75.1245 162.71 77.6588C156.593 80.193 149.862 80.8564 143.368 79.565C136.874 78.2736 130.908 75.0855 126.226 70.4038C121.544 65.7221 118.355 59.757 117.063 53.2631C115.772 46.7691 116.434 40.0378 118.968 33.9205C121.502 27.8032 125.793 22.5746 131.298 18.896C136.803 15.2174 143.276 13.2539 149.897 13.2539C158.776 13.2542 167.29 16.7813 173.569 23.0594C179.847 29.3375 183.374 37.8523 183.374 46.7309" fill="#FFD0CC"/>
<path d="M183.886 46.7279C183.887 53.3491 181.924 59.8217 178.246 65.3273C174.568 70.833 169.34 75.1243 163.223 77.6586C157.106 80.1929 150.375 80.8564 143.88 79.5652C137.386 78.274 131.421 75.086 126.739 70.4045C122.057 65.723 118.868 59.7581 117.576 53.2643C116.283 46.7704 116.946 40.0392 119.479 33.9219C122.013 27.8046 126.303 22.5759 131.808 18.897C137.313 15.2181 143.786 13.2543 150.407 13.2539C159.286 13.2539 167.801 16.7809 174.079 23.059C180.358 29.3371 183.885 37.8521 183.886 46.7309" fill="#FFD0CC"/>
<path d="M184.397 46.7279C184.398 53.3492 182.435 59.8219 178.757 65.3275C175.078 70.8332 169.85 75.1245 163.733 77.6588C157.616 80.193 150.885 80.8564 144.391 79.565C137.897 78.2736 131.931 75.0855 127.249 70.4038C122.567 65.7221 119.378 59.757 118.086 53.2631C116.795 46.7691 117.457 40.0378 119.991 33.9205C122.525 27.8032 126.816 22.5746 132.321 18.896C137.826 15.2174 144.299 13.2539 150.92 13.2539C159.798 13.2544 168.313 16.7816 174.591 23.0597C180.869 29.3377 184.396 37.8524 184.397 46.7309" fill="#FFD0CC"/>
<path d="M184.908 46.7279C184.909 53.3492 182.946 59.8219 179.268 65.3275C175.589 70.8332 170.361 75.1245 164.244 77.6588C158.127 80.193 151.396 80.8564 144.902 79.565C138.408 78.2736 132.442 75.0855 127.76 70.4038C123.078 65.7221 119.889 59.757 118.597 53.2631C117.306 46.7691 117.968 40.0378 120.502 33.9205C123.036 27.8032 127.327 22.5746 132.832 18.896C138.337 15.2174 144.81 13.2539 151.431 13.2539C160.31 13.2542 168.824 16.7813 175.103 23.0594C181.381 29.3375 184.908 37.8523 184.908 46.7309" fill="#FFD0CC"/>
<path d="M185.419 46.7279C185.42 53.3492 183.457 59.8219 179.779 65.3275C176.1 70.8332 170.872 75.1245 164.755 77.6588C158.638 80.193 151.907 80.8564 145.413 79.565C138.919 78.2736 132.953 75.0855 128.271 70.4038C123.589 65.7221 120.4 59.757 119.108 53.2631C117.816 46.7691 118.479 40.0378 121.013 33.9205C123.547 27.8032 127.838 22.5746 133.343 18.896C138.848 15.2174 145.321 13.2539 151.942 13.2539C160.821 13.2542 169.335 16.7813 175.614 23.0594C181.892 29.3375 185.419 37.8523 185.419 46.7309" fill="#FFD0CC"/>
<path d="M185.929 46.7279C185.93 53.3493 183.967 59.8222 180.288 65.328C176.61 70.8337 171.382 75.125 165.264 77.6591C159.147 80.1933 152.416 80.8564 145.921 79.5647C139.427 78.273 133.462 75.0845 128.78 70.4024C124.098 65.7202 120.909 59.7548 119.618 53.2606C118.326 46.7663 118.99 40.035 121.524 33.9177C124.058 27.8005 128.35 22.5722 133.856 18.8941C139.362 15.2159 145.835 13.2531 152.456 13.2539C161.335 13.2542 169.849 16.7813 176.128 23.0594C182.406 29.3375 185.933 37.8523 185.933 46.7309" fill="#FFD0CC"/>
<path d="M186.44 46.7279C186.441 53.3492 184.478 59.8219 180.8 65.3275C177.121 70.8332 171.893 75.1245 165.776 77.6588C159.659 80.193 152.928 80.8564 146.434 79.565C139.94 78.2736 133.974 75.0855 129.292 70.4038C124.61 65.7221 121.421 59.757 120.129 53.2631C118.837 46.7691 119.5 40.0378 122.034 33.9205C124.568 27.8032 128.859 22.5746 134.364 18.896C139.869 15.2174 146.342 13.2539 152.963 13.2539C161.842 13.2542 170.356 16.7813 176.634 23.0594C182.913 29.3375 186.44 37.8523 186.44 46.7309" fill="#FFD0CC"/>
<path d="M186.951 46.7279C186.952 53.3492 184.989 59.8219 181.311 65.3275C177.632 70.8332 172.404 75.1245 166.287 77.6588C160.17 80.193 153.439 80.8564 146.945 79.565C140.451 78.2736 134.485 75.0855 129.803 70.4038C125.121 65.7221 121.932 59.757 120.64 53.2631C119.348 46.7691 120.011 40.0378 122.545 33.9205C125.079 27.8032 129.369 22.5746 134.875 18.896C140.38 15.2174 146.853 13.2539 153.474 13.2539C162.353 13.2542 170.867 16.7813 177.145 23.0594C183.424 29.3375 186.951 37.8523 186.951 46.7309" fill="#FFD0CC"/>
<path d="M187.462 46.7279C187.463 53.3492 185.5 59.8219 181.822 65.3275C178.143 70.8332 172.915 75.1245 166.798 77.6588C160.681 80.193 153.95 80.8564 147.456 79.565C140.962 78.2736 134.996 75.0855 130.314 70.4038C125.632 65.7221 122.443 59.757 121.151 53.2631C119.859 46.7691 120.522 40.0378 123.056 33.9205C125.59 27.8032 129.88 22.5746 135.386 18.896C140.891 15.2174 147.364 13.2539 153.985 13.2539C162.863 13.2542 171.377 16.7809 177.655 23.0583C183.933 29.3358 187.461 37.8499 187.462 46.7279Z" fill="#FFD0CC"/>
<path d="M187.972 46.7279C187.973 53.3492 186.01 59.8219 182.332 65.3275C178.653 70.8332 173.425 75.1245 167.308 77.6588C161.191 80.193 154.46 80.8564 147.966 79.565C141.472 78.2736 135.506 75.0855 130.824 70.4038C126.142 65.7221 122.953 59.757 121.661 53.2631C120.369 46.7691 121.032 40.0378 123.566 33.9205C126.1 27.8032 130.39 22.5746 135.896 18.896C141.401 15.2174 147.874 13.2539 154.495 13.2539C163.374 13.2542 171.888 16.7813 178.166 23.0594C184.445 29.3375 187.972 37.8523 187.972 46.7309" fill="#FFD0CC"/>
<path d="M188.483 46.7279C188.484 53.3492 186.521 59.8219 182.843 65.3275C179.164 70.8332 173.936 75.1245 167.819 77.6588C161.702 80.193 154.971 80.8564 148.477 79.565C141.983 78.2736 136.017 75.0855 131.335 70.4038C126.653 65.7221 123.464 59.757 122.172 53.2631C120.88 46.7691 121.543 40.0378 124.077 33.9205C126.611 27.8032 130.901 22.5746 136.407 18.896C141.912 15.2174 148.385 13.2539 155.006 13.2539C163.885 13.2542 172.399 16.7813 178.677 23.0594C184.956 29.3375 188.483 37.8523 188.483 46.7309" fill="#FFD0CC"/>
<path d="M188.994 46.7279C188.995 53.3492 187.032 59.8219 183.354 65.3275C179.675 70.8332 174.447 75.1245 168.33 77.6588C162.213 80.193 155.482 80.8564 148.988 79.565C142.494 78.2736 136.528 75.0855 131.846 70.4038C127.164 65.7221 123.975 59.757 122.683 53.2631C121.392 46.7691 122.054 40.0378 124.588 33.9205C127.122 27.8032 131.413 22.5746 136.918 18.896C142.423 15.2174 148.896 13.2539 155.517 13.2539C164.396 13.2542 172.91 16.7813 179.189 23.0594C185.467 29.3375 188.994 37.8523 188.994 46.7309" fill="#FFD0CC"/>
<path d="M189.509 46.7279C189.51 53.349 187.547 59.8216 183.869 65.3271C180.191 70.8327 174.963 75.124 168.846 77.6584C162.729 80.1927 155.998 80.8564 149.504 79.5653C143.01 78.2743 137.045 75.0865 132.363 70.4052C127.68 65.7239 124.491 59.7592 123.199 53.2655C121.906 46.7718 122.569 40.0406 125.102 33.9233C127.635 27.8059 131.925 22.5771 137.43 18.898C142.935 15.2188 149.407 13.2547 156.028 13.2539C164.907 13.2531 173.422 16.7793 179.701 23.0569C185.98 29.3345 189.508 37.8492 189.509 46.7279Z" fill="#FFD0CC"/>
<path d="M190.015 46.7279C190.016 53.3492 188.053 59.8219 184.375 65.3275C180.696 70.8332 175.468 75.1245 169.351 77.6588C163.234 80.193 156.503 80.8564 150.009 79.565C143.515 78.2736 137.549 75.0855 132.867 70.4038C128.185 65.7221 124.996 59.757 123.704 53.2631C122.412 46.7691 123.075 40.0378 125.609 33.9205C128.143 27.8032 132.434 22.5746 137.939 18.896C143.444 15.2174 149.917 13.2539 156.538 13.2539C165.417 13.2542 173.931 16.7813 180.21 23.0594C186.488 29.3375 190.015 37.8523 190.015 46.7309" fill="#FFD0CC"/>
<path d="M190.526 46.7279C190.527 53.3493 188.564 59.8221 184.885 65.3279C181.207 70.8336 175.979 75.1249 169.861 77.659C163.744 80.1932 157.013 80.8564 150.519 79.5648C144.024 78.2732 138.059 75.0847 133.377 70.4027C128.695 65.7207 125.507 59.7554 124.215 53.2612C122.923 46.767 123.587 40.0357 126.121 33.9184C128.655 27.8012 132.946 22.5728 138.452 18.8945C143.958 15.2163 150.431 13.2533 157.052 13.2539C165.931 13.2542 174.445 16.7813 180.723 23.0594C187.002 29.3375 190.529 37.8523 190.529 46.7309" fill="#FFD0CC"/>
<path d="M191.037 46.7279C191.037 53.3489 189.074 59.8213 185.396 65.3266C181.718 70.832 176.49 75.123 170.373 77.657C164.256 80.1911 157.526 80.8544 151.032 79.563C144.538 78.2716 138.573 75.0836 133.891 70.4021C129.209 65.7206 126.02 59.7558 124.728 53.2621C123.437 46.7684 124.099 40.0374 126.633 33.9204C129.166 27.8033 133.457 22.5749 138.962 18.8963C144.467 15.2177 150.939 13.2541 157.56 13.2539C166.439 13.2542 174.953 16.7813 181.231 23.0594C187.51 29.3375 191.037 37.8523 191.037 46.7309" fill="#FFD0CC"/>
<path d="M191.55 46.7279C191.551 53.3492 189.588 59.8219 185.91 65.3275C182.231 70.8332 177.003 75.1245 170.886 77.6588C164.769 80.193 158.038 80.8564 151.544 79.565C145.05 78.2736 139.084 75.0855 134.402 70.4038C129.72 65.7221 126.531 59.757 125.239 53.2631C123.947 46.7691 124.61 40.0378 127.144 33.9205C129.678 27.8032 133.968 22.5746 139.474 18.896C144.979 15.2174 151.452 13.2539 158.073 13.2539C166.952 13.2542 175.466 16.7813 181.744 23.0594C188.023 29.3375 191.55 37.8523 191.55 46.7309" fill="#FFD0CC"/>
<path d="M192.06 46.7279C192.061 53.3492 190.098 59.8219 186.42 65.3275C182.741 70.8332 177.513 75.1245 171.396 77.6588C165.279 80.193 158.548 80.8564 152.054 79.565C145.56 78.2736 139.594 75.0855 134.912 70.4038C130.23 65.7221 127.041 59.757 125.749 53.2631C124.457 46.7691 125.12 40.0378 127.654 33.9205C130.188 27.8032 134.479 22.5746 139.984 18.896C145.489 15.2174 151.962 13.2539 158.583 13.2539C167.462 13.2542 175.976 16.7813 182.254 23.0594C188.533 29.3375 192.06 37.8523 192.06 46.7309" fill="#FFD0CC"/>
<path d="M192.571 46.7279C192.572 53.3492 190.609 59.8219 186.931 65.3275C183.252 70.8332 178.024 75.1245 171.907 77.6588C165.79 80.193 159.059 80.8564 152.565 79.565C146.071 78.2736 140.105 75.0855 135.423 70.4038C130.741 65.7221 127.552 59.757 126.26 53.2631C124.968 46.7691 125.631 40.0378 128.165 33.9205C130.699 27.8032 134.989 22.5746 140.495 18.896C146 15.2174 152.473 13.2539 159.094 13.2539C167.973 13.2542 176.487 16.7813 182.765 23.0594C189.044 29.3375 192.571 37.8523 192.571 46.7309" fill="#FFD0CC"/>
<path d="M193.082 46.7279C193.083 53.3492 191.12 59.8219 187.442 65.3275C183.763 70.8332 178.535 75.1245 172.418 77.6588C166.301 80.193 159.57 80.8564 153.076 79.565C146.582 78.2736 140.616 75.0855 135.934 70.4038C131.252 65.7221 128.063 59.757 126.771 53.2631C125.479 46.7691 126.142 40.0378 128.676 33.9205C131.21 27.8032 135.5 22.5746 141.006 18.896C146.511 15.2174 152.984 13.2539 159.605 13.2539C168.483 13.2542 176.997 16.7809 183.275 23.0583C189.553 29.3358 193.081 37.8499 193.082 46.7279Z" fill="#FFD0CC"/>
<path d="M193.593 46.7279C193.594 53.3492 191.631 59.8219 187.953 65.3275C184.274 70.8332 179.046 75.1245 172.929 77.6588C166.812 80.193 160.081 80.8564 153.587 79.565C147.093 78.2736 141.127 75.0855 136.445 70.4038C131.763 65.7221 128.574 59.757 127.282 53.2631C125.991 46.7691 126.653 40.0378 129.187 33.9205C131.721 27.8032 136.012 22.5746 141.517 18.896C147.022 15.2174 153.495 13.2539 160.116 13.2539C168.995 13.2542 177.509 16.7813 183.788 23.0594C190.066 29.3375 193.593 37.8523 193.593 46.7309" fill="#FFD0CC"/>
<path d="M194.105 46.7279C194.106 53.3491 192.143 59.8217 188.465 65.3273C184.787 70.833 179.559 75.1243 173.442 77.6586C167.325 80.1929 160.594 80.8564 154.099 79.5652C147.605 78.274 141.64 75.086 136.958 70.4045C132.276 65.723 129.087 59.7581 127.795 53.2643C126.502 46.7704 127.165 40.0392 129.698 33.9219C132.232 27.8046 136.522 22.5759 142.027 18.897C147.532 15.2181 154.005 13.2543 160.626 13.2539C169.504 13.2536 178.019 16.7801 184.298 23.0576C190.576 29.3351 194.104 37.8495 194.105 46.7279Z" fill="#FFD0CC"/>
<path d="M194.614 46.7279C194.615 53.3492 192.652 59.8219 188.974 65.3275C185.295 70.8332 180.067 75.1245 173.95 77.6588C167.833 80.193 161.102 80.8564 154.608 79.565C148.114 78.2736 142.148 75.0855 137.466 70.4038C132.784 65.7221 129.595 59.757 128.303 53.2631C127.011 46.7691 127.674 40.0378 130.208 33.9205C132.742 27.8032 137.033 22.5746 142.538 18.896C148.043 15.2174 154.516 13.2539 161.137 13.2539C170.016 13.2542 178.53 16.7813 184.809 23.0594C191.087 29.3375 194.614 37.8523 194.614 46.7309" fill="#FFD0CC"/>
<path d="M195.125 46.7279C195.126 53.3492 193.163 59.822 189.484 65.3277C185.806 70.8333 180.578 75.1246 174.461 77.6589C168.344 80.1931 161.613 80.8564 155.118 79.5649C148.624 78.2735 142.659 75.0853 137.977 70.4034C133.295 65.7216 130.106 59.7565 128.814 53.2624C127.522 46.7684 128.185 40.0371 130.719 33.9198C133.253 27.8025 137.544 22.574 143.05 18.8955C148.555 15.217 155.028 13.2537 161.649 13.2539C170.528 13.2542 179.042 16.7813 185.32 23.0594C191.599 29.3375 195.126 37.8523 195.126 46.7309" fill="#FFD0CC"/>
<path d="M195.636 46.7279C195.637 53.3492 193.674 59.8219 189.996 65.3275C186.317 70.8332 181.089 75.1245 174.972 77.6588C168.855 80.193 162.124 80.8564 155.63 79.565C149.136 78.2736 143.17 75.0855 138.488 70.4038C133.806 65.7221 130.617 59.757 129.325 53.2631C128.033 46.7691 128.696 40.0378 131.23 33.9205C133.764 27.8032 138.054 22.5746 143.56 18.896C149.065 15.2174 155.538 13.2539 162.159 13.2539C171.038 13.2542 179.552 16.7813 185.83 23.0594C192.109 29.3375 195.636 37.8523 195.636 46.7309" fill="#FFD0CC"/>
<path d="M196.146 46.7279C196.147 53.3492 194.184 59.8219 190.506 65.3275C186.827 70.8332 181.599 75.1245 175.482 77.6588C169.365 80.193 162.634 80.8564 156.14 79.565C149.646 78.2736 143.68 75.0855 138.998 70.4038C134.316 65.7221 131.127 59.757 129.835 53.2631C128.543 46.7691 129.206 40.0378 131.74 33.9205C134.274 27.8032 138.565 22.5746 144.07 18.896C149.575 15.2174 156.048 13.2539 162.669 13.2539C171.548 13.2542 180.062 16.7813 186.34 23.0594C192.619 29.3375 196.146 37.8523 196.146 46.7309" fill="#FFD0CC"/>
<path d="M196.657 46.7279C196.658 53.3492 194.695 59.8219 191.017 65.3275C187.338 70.8332 182.11 75.1245 175.993 77.6588C169.876 80.193 163.145 80.8564 156.651 79.565C150.157 78.2736 144.191 75.0855 139.509 70.4038C134.827 65.7221 131.638 59.757 130.346 53.2631C129.054 46.7691 129.717 40.0378 132.251 33.9205C134.785 27.8032 139.075 22.5746 144.581 18.896C150.086 15.2174 156.559 13.2539 163.18 13.2539C172.059 13.2542 180.573 16.7813 186.851 23.0594C193.13 29.3375 196.657 37.8523 196.657 46.7309" fill="#FFD0CC"/>
<path d="M197.168 46.7279C197.169 53.3492 195.206 59.8219 191.528 65.3275C187.849 70.8332 182.621 75.1245 176.504 77.6588C170.387 80.193 163.656 80.8564 157.162 79.565C150.668 78.2736 144.702 75.0855 140.02 70.4038C135.338 65.7221 132.149 59.757 130.857 53.2631C129.566 46.7691 130.228 40.0378 132.762 33.9205C135.296 27.8032 139.587 22.5746 145.092 18.896C150.597 15.2174 157.07 13.2539 163.691 13.2539C172.57 13.2542 181.084 16.7813 187.363 23.0594C193.641 29.3375 197.168 37.8523 197.168 46.7309" fill="#FFD0CC"/>
<path d="M197.681 46.7279C197.682 53.3494 195.719 59.8225 192.041 65.3285C188.363 70.8345 183.134 75.126 177.017 77.6605C170.9 80.1949 164.168 80.8584 157.674 79.567C151.179 78.2757 145.214 75.0874 140.532 70.4055C135.849 65.7236 132.66 59.7583 131.368 53.264C130.076 46.7697 130.739 40.0382 133.273 33.9207C135.807 27.8031 140.098 22.5744 145.604 18.8958C151.11 15.2171 157.582 13.2537 164.204 13.2539C173.082 13.2544 181.597 16.7816 187.875 23.0597C194.153 29.3377 197.68 37.8524 197.681 46.7309" fill="#FFD0CC"/>
<path d="M198.191 46.7279C198.192 53.3492 196.229 59.8219 192.551 65.3275C188.872 70.8332 183.644 75.1245 177.527 77.6588C171.41 80.193 164.679 80.8564 158.185 79.565C151.691 78.2736 145.725 75.0855 141.043 70.4038C136.361 65.7221 133.172 59.757 131.88 53.2631C130.588 46.7691 131.251 40.0378 133.785 33.9205C136.319 27.8032 140.609 22.5746 146.115 18.896C151.62 15.2174 158.093 13.2539 164.714 13.2539C173.593 13.2542 182.107 16.7813 188.385 23.0594C194.664 29.3375 198.191 37.8523 198.191 46.7309" fill="#FFD0CC"/>
<path d="M198.702 46.7279C198.703 53.3492 196.74 59.8219 193.062 65.3275C189.383 70.8332 184.155 75.1245 178.038 77.6588C171.921 80.193 165.19 80.8564 158.696 79.565C152.202 78.2736 146.236 75.0855 141.554 70.4038C136.872 65.7221 133.683 59.757 132.391 53.2631C131.099 46.7691 131.762 40.0378 134.296 33.9205C136.83 27.8032 141.12 22.5746 146.626 18.896C152.131 15.2174 158.604 13.2539 165.225 13.2539C174.103 13.2542 182.617 16.7809 188.895 23.0583C195.173 29.3358 198.701 37.8499 198.702 46.7279Z" fill="#FFD0CC"/>
<path d="M199.213 46.7279C199.214 53.3492 197.251 59.8219 193.573 65.3275C189.894 70.8332 184.666 75.1245 178.549 77.6588C172.432 80.193 165.701 80.8564 159.207 79.565C152.713 78.2736 146.747 75.0855 142.065 70.4038C137.383 65.7221 134.194 59.757 132.902 53.2631C131.61 46.7691 132.273 40.0378 134.807 33.9205C137.341 27.8032 141.632 22.5746 147.137 18.896C152.642 15.2174 159.115 13.2539 165.736 13.2539C174.615 13.2542 183.129 16.7813 189.408 23.0594C195.686 29.3375 199.213 37.8523 199.213 46.7309" fill="#FFD0CC"/>
<path d="M199.723 46.7279C199.724 53.3491 197.761 59.8218 194.083 65.3274C190.404 70.8331 185.176 75.1244 179.059 77.6587C172.942 80.1929 166.211 80.8564 159.717 79.5651C153.223 78.2738 147.258 75.0858 142.576 70.4041C137.893 65.7225 134.705 59.7576 133.413 53.2637C132.12 46.7697 132.783 40.0385 135.317 33.9212C137.85 27.8039 142.141 22.5752 147.646 18.8965C153.151 15.2177 159.624 13.2541 166.245 13.2539C175.124 13.2542 183.638 16.7813 189.916 23.0594C196.195 29.3375 199.722 37.8523 199.722 46.7309" fill="#FFD0CC"/>
<path d="M200.234 46.7279C200.235 53.3492 198.272 59.8219 194.594 65.3275C190.915 70.8332 185.687 75.1245 179.57 77.6588C173.453 80.193 166.722 80.8564 160.228 79.565C153.734 78.2736 147.768 75.0855 143.086 70.4038C138.404 65.7221 135.215 59.757 133.923 53.2631C132.631 46.7691 133.294 40.0378 135.828 33.9205C138.362 27.8032 142.653 22.5746 148.158 18.896C153.663 15.2174 160.136 13.2539 166.757 13.2539C175.636 13.2542 184.15 16.7813 190.429 23.0594C196.707 29.3375 200.234 37.8523 200.234 46.7309" fill="#FFD0CC"/>
<path d="M200.745 46.7279C200.746 53.3492 198.783 59.8219 195.105 65.3275C191.426 70.8332 186.198 75.1245 180.081 77.6588C173.964 80.193 167.233 80.8564 160.739 79.565C154.245 78.2736 148.279 75.0855 143.597 70.4038C138.915 65.7221 135.726 59.757 134.434 53.2631C133.142 46.7691 133.805 40.0378 136.339 33.9205C138.873 27.8032 143.164 22.5746 148.669 18.896C154.174 15.2174 160.647 13.2539 167.268 13.2539C176.147 13.2542 184.661 16.7813 190.939 23.0594C197.218 29.3375 200.745 37.8523 200.745 46.7309" fill="#FFD0CC"/>
<path d="M201.256 46.7279C201.257 53.3492 199.294 59.8219 195.616 65.3275C191.937 70.8332 186.709 75.1245 180.592 77.6588C174.475 80.193 167.744 80.8564 161.25 79.565C154.756 78.2736 148.79 75.0855 144.108 70.4038C139.426 65.7221 136.237 59.757 134.945 53.2631C133.653 46.7691 134.316 40.0378 136.85 33.9205C139.384 27.8032 143.674 22.5746 149.18 18.896C154.685 15.2174 161.158 13.2539 167.779 13.2539C176.658 13.2542 185.172 16.7813 191.45 23.0594C197.729 29.3375 201.256 37.8523 201.256 46.7309" fill="#FFD0CC"/>
<path d="M201.766 46.7279C201.767 53.3492 199.804 59.8219 196.126 65.3275C192.447 70.8332 187.219 75.1245 181.102 77.6588C174.985 80.193 168.254 80.8564 161.76 79.565C155.266 78.2736 149.3 75.0855 144.618 70.4038C139.936 65.7221 136.747 59.757 135.455 53.2631C134.163 46.7691 134.826 40.0378 137.36 33.9205C139.894 27.8032 144.184 22.5746 149.69 18.896C155.195 15.2174 161.668 13.2539 168.289 13.2539C177.168 13.2542 185.682 16.7813 191.96 23.0594C198.239 29.3375 201.766 37.8523 201.766 46.7309" fill="#FFD0CC"/>
<path d="M202.277 46.7279C202.278 53.3492 200.315 59.8219 196.637 65.3275C192.958 70.8332 187.73 75.1245 181.613 77.6588C175.496 80.193 168.765 80.8564 162.271 79.565C155.777 78.2736 149.811 75.0855 145.129 70.4038C140.447 65.7221 137.258 59.757 135.966 53.2631C134.674 46.7691 135.337 40.0378 137.871 33.9205C140.405 27.8032 144.695 22.5746 150.201 18.896C155.706 15.2174 162.179 13.2539 168.8 13.2539C177.679 13.2542 186.193 16.7813 192.471 23.0594C198.75 29.3375 202.277 37.8523 202.277 46.7309" fill="#FFD0CC"/>
<path d="M202.788 46.7279C202.789 53.3492 200.826 59.8219 197.148 65.3275C193.469 70.8332 188.241 75.1245 182.124 77.6588C176.007 80.193 169.276 80.8564 162.782 79.565C156.288 78.2736 150.322 75.0855 145.64 70.4038C140.958 65.7221 137.769 59.757 136.477 53.2631C135.186 46.7691 135.848 40.0378 138.382 33.9205C140.916 27.8032 145.207 22.5746 150.712 18.896C156.217 15.2174 162.69 13.2539 169.311 13.2539C178.19 13.2542 186.704 16.7813 192.983 23.0594C199.261 29.3375 202.788 37.8523 202.788 46.7309" fill="#FFD0CC"/>
<path d="M203.298 46.7279C203.299 53.3492 201.336 59.822 197.658 65.3277C193.979 70.8333 188.751 75.1246 182.634 77.6589C176.517 80.1931 169.786 80.8564 163.291 79.5649C156.797 78.2735 150.832 75.0853 146.15 70.4034C141.468 65.7216 138.279 59.7565 136.987 53.2624C135.696 46.7684 136.358 40.0371 138.892 33.9198C141.426 27.8025 145.717 22.574 151.223 18.8955C156.728 15.217 163.201 13.2537 169.822 13.2539C178.7 13.2544 187.214 16.7813 193.492 23.0587C199.77 29.3361 203.297 37.85 203.298 46.7279Z" fill="#FFD0CC"/>
<path d="M203.81 46.7279C203.811 53.3492 201.848 59.8219 198.17 65.3275C194.491 70.8332 189.263 75.1245 183.146 77.6588C177.029 80.193 170.298 80.8564 163.804 79.565C157.31 78.2736 151.344 75.0855 146.662 70.4038C141.98 65.7221 138.791 59.757 137.499 53.2631C136.207 46.7691 136.87 40.0378 139.404 33.9205C141.938 27.8032 146.229 22.5746 151.734 18.896C157.239 15.2174 163.712 13.2539 170.333 13.2539C179.211 13.2542 187.725 16.7809 194.003 23.0583C200.281 29.3358 203.809 37.8499 203.81 46.7279Z" fill="#FFD0CC"/>
<path d="M204.32 46.7279C204.321 53.3491 202.358 59.8217 198.68 65.3273C195.002 70.833 189.774 75.1243 183.657 77.6586C177.54 80.1929 170.809 80.8564 164.315 79.5652C157.82 78.274 151.855 75.086 147.173 70.4045C142.491 65.723 139.302 59.7581 138.01 53.2643C136.718 46.7704 137.38 40.0392 139.913 33.9219C142.447 27.8046 146.737 22.5759 152.242 18.897C157.747 15.2181 164.22 13.2543 170.841 13.2539C179.72 13.2542 188.234 16.7813 194.513 23.0594C200.791 29.3375 204.318 37.8523 204.318 46.7309" fill="#FFD0CC"/>
<path d="M204.833 46.7279C204.834 53.3492 202.871 59.8219 199.193 65.3275C195.514 70.8332 190.286 75.1245 184.169 77.6588C178.052 80.193 171.321 80.8564 164.827 79.565C158.333 78.2736 152.367 75.0855 147.685 70.4038C143.003 65.7221 139.814 59.757 138.522 53.2631C137.23 46.7691 137.893 40.0378 140.427 33.9205C142.961 27.8032 147.252 22.5746 152.757 18.896C158.262 15.2174 164.735 13.2539 171.356 13.2539C180.235 13.2542 188.749 16.7813 195.028 23.0594C201.306 29.3375 204.833 37.8523 204.833 46.7309" fill="#FFD0CC"/>
<path d="M205.344 46.7279C205.345 53.3492 203.382 59.8219 199.704 65.3275C196.025 70.8332 190.797 75.1245 184.68 77.6588C178.563 80.193 171.832 80.8564 165.338 79.565C158.844 78.2736 152.878 75.0855 148.196 70.4038C143.514 65.7221 140.325 59.757 139.033 53.2631C137.741 46.7691 138.404 40.0378 140.938 33.9205C143.472 27.8032 147.763 22.5746 153.268 18.896C158.773 15.2174 165.246 13.2539 171.867 13.2539C180.746 13.2542 189.26 16.7813 195.538 23.0594C201.817 29.3375 205.344 37.8523 205.344 46.7309" fill="#FFD0CC"/>
<path d="M205.854 46.7279C205.855 53.3492 203.892 59.8219 200.214 65.3275C196.535 70.8332 191.307 75.1245 185.19 77.6588C179.073 80.193 172.342 80.8564 165.848 79.565C159.354 78.2736 153.388 75.0855 148.706 70.4038C144.024 65.7221 140.835 59.757 139.543 53.2631C138.251 46.7691 138.914 40.0378 141.448 33.9205C143.982 27.8032 148.273 22.5746 153.778 18.896C159.283 15.2174 165.756 13.2539 172.377 13.2539C181.256 13.2542 189.77 16.7813 196.048 23.0594C202.327 29.3375 205.854 37.8523 205.854 46.7309" fill="#FFD0CC"/>
<path d="M206.365 46.7279C206.366 53.3492 204.403 59.8219 200.725 65.3275C197.046 70.8332 191.818 75.1245 185.701 77.6588C179.584 80.193 172.853 80.8564 166.359 79.565C159.865 78.2736 153.899 75.0855 149.217 70.4038C144.535 65.7221 141.346 59.757 140.054 53.2631C138.762 46.7691 139.425 40.0378 141.959 33.9205C144.493 27.8032 148.783 22.5746 154.289 18.896C159.794 15.2174 166.267 13.2539 172.888 13.2539C181.767 13.2542 190.281 16.7813 196.559 23.0594C202.838 29.3375 206.365 37.8523 206.365 46.7309" fill="#FFD0CC"/>
<path d="M206.876 46.7279C206.877 53.3492 204.914 59.8219 201.236 65.3275C197.557 70.8332 192.329 75.1245 186.212 77.6588C180.095 80.193 173.364 80.8564 166.87 79.565C160.376 78.2736 154.41 75.0855 149.728 70.4038C145.046 65.7221 141.857 59.757 140.565 53.2631C139.273 46.7691 139.936 40.0378 142.47 33.9205C145.004 27.8032 149.294 22.5746 154.8 18.896C160.305 15.2174 166.778 13.2539 173.399 13.2539C182.278 13.2542 190.792 16.7813 197.07 23.0594C203.349 29.3375 206.876 37.8523 206.876 46.7309" fill="#FFD0CC"/>
<path d="M207.387 46.7279C207.388 53.3492 205.425 59.8219 201.747 65.3275C198.068 70.8332 192.84 75.1245 186.723 77.6588C180.606 80.193 173.875 80.8564 167.381 79.565C160.887 78.2736 154.921 75.0855 150.239 70.4038C145.557 65.7221 142.368 59.757 141.076 53.2631C139.785 46.7691 140.447 40.0378 142.981 33.9205C145.515 27.8032 149.806 22.5746 155.311 18.896C160.816 15.2174 167.289 13.2539 173.91 13.2539C182.789 13.2542 191.303 16.7813 197.582 23.0594C203.86 29.3375 207.387 37.8523 207.387 46.7309" fill="#FFD0CC"/>
<path d="M207.894 46.7279C207.895 53.3493 205.932 59.8221 202.253 65.3279C198.575 70.8336 193.347 75.1249 187.229 77.659C181.112 80.1932 174.381 80.8564 167.887 79.5648C161.392 78.2732 155.427 75.0847 150.745 70.4027C146.063 65.7207 142.875 59.7554 141.583 53.2612C140.291 46.767 140.955 40.0357 143.489 33.9184C146.023 27.8012 150.314 22.5728 155.82 18.8945C161.326 15.2163 167.799 13.2533 174.42 13.2539C183.297 13.255 191.811 16.782 198.088 23.0594C204.366 29.3367 207.893 37.8504 207.894 46.7279Z" fill="#FFD0CC"/>
<path d="M208.408 46.7279C208.409 53.3492 206.446 59.8219 202.768 65.3275C199.089 70.8332 193.861 75.1245 187.744 77.6588C181.627 80.193 174.896 80.8564 168.402 79.565C161.908 78.2736 155.942 75.0855 151.26 70.4038C146.578 65.7221 143.389 59.757 142.097 53.2631C140.806 46.7691 141.468 40.0378 144.002 33.9205C146.536 27.8032 150.827 22.5746 156.332 18.896C161.837 15.2174 168.31 13.2539 174.931 13.2539C183.81 13.2542 192.324 16.7813 198.603 23.0594C204.881 29.3375 208.408 37.8523 208.408 46.7309" fill="#FFD0CC"/>
<path d="M208.919 46.7279C208.92 53.349 206.957 59.8216 203.279 65.3271C199.601 70.8327 194.373 75.124 188.256 77.6584C182.139 80.1927 175.408 80.8564 168.914 79.5653C162.42 78.2743 156.455 75.0865 151.773 70.4052C147.09 65.7239 143.901 59.7592 142.609 53.2655C141.317 46.7718 141.979 40.0406 144.512 33.9233C147.045 27.8059 151.335 22.5771 156.84 18.898C162.345 15.2188 168.817 13.2547 175.438 13.2539C184.317 13.2542 192.831 16.7813 199.11 23.0594C205.388 29.3375 208.915 37.8523 208.915 46.7309" fill="#FFD0CC"/>
<path d="M209.43 46.7279C209.431 53.3492 207.468 59.8219 203.79 65.3275C200.111 70.8332 194.883 75.1245 188.766 77.6588C182.649 80.193 175.918 80.8564 169.424 79.565C162.93 78.2736 156.964 75.0855 152.282 70.4038C147.6 65.7221 144.411 59.757 143.119 53.2631C141.827 46.7691 142.49 40.0378 145.024 33.9205C147.558 27.8032 151.849 22.5746 157.354 18.896C162.859 15.2174 169.332 13.2539 175.953 13.2539C184.831 13.2542 193.345 16.7809 199.623 23.0583C205.901 29.3358 209.429 37.8499 209.43 46.7279Z" fill="#FFD0CC"/>
<path d="M209.94 46.7279C209.941 53.3492 207.978 59.8219 204.3 65.3275C200.621 70.8332 195.393 75.1245 189.276 77.6588C183.159 80.193 176.428 80.8564 169.934 79.565C163.44 78.2736 157.474 75.0855 152.792 70.4038C148.11 65.7221 144.921 59.757 143.629 53.2631C142.337 46.7691 143 40.0378 145.534 33.9205C148.068 27.8032 152.359 22.5746 157.864 18.896C163.369 15.2174 169.842 13.2539 176.463 13.2539C185.342 13.2542 193.856 16.7813 200.135 23.0594C206.413 29.3375 209.94 37.8523 209.94 46.7309" fill="#FFD0CC"/>
<path d="M210.451 46.7279C210.452 53.3492 208.489 59.8219 204.811 65.3275C201.132 70.8332 195.904 75.1245 189.787 77.6588C183.67 80.193 176.939 80.8564 170.445 79.565C163.951 78.2736 157.985 75.0855 153.303 70.4038C148.621 65.7221 145.432 59.757 144.14 53.2631C142.848 46.7691 143.511 40.0378 146.045 33.9205C148.579 27.8032 152.869 22.5746 158.375 18.896C163.88 15.2174 170.353 13.2539 176.974 13.2539C185.853 13.2542 194.367 16.7813 200.645 23.0594C206.924 29.3375 210.451 37.8523 210.451 46.7309" fill="#FFD0CC"/>
<path d="M210.964 46.7279C210.965 53.3491 209.002 59.8217 205.324 65.3273C201.646 70.833 196.418 75.1243 190.301 77.6586C184.184 80.1929 177.453 80.8564 170.958 79.5652C164.464 78.274 158.499 75.086 153.817 70.4045C149.135 65.723 145.946 59.7581 144.654 53.2643C143.361 46.7704 144.024 40.0392 146.557 33.9219C149.091 27.8046 153.381 22.5759 158.886 18.897C164.391 15.2181 170.864 13.2543 177.485 13.2539C186.364 13.2539 194.879 16.7809 201.157 23.059C207.436 29.3371 210.963 37.8521 210.964 46.7309" fill="#FFD0CC"/>
<path d="M211.474 46.7279C211.475 53.3492 209.512 59.8219 205.834 65.3275C202.155 70.8332 196.927 75.1245 190.81 77.6588C184.693 80.193 177.962 80.8564 171.468 79.565C164.974 78.2736 159.008 75.0855 154.326 70.4038C149.644 65.7221 146.455 59.757 145.163 53.2631C143.871 46.7691 144.534 40.0378 147.068 33.9205C149.602 27.8032 153.893 22.5746 159.398 18.896C164.903 15.2174 171.376 13.2539 177.997 13.2539C186.875 13.2544 195.39 16.7816 201.668 23.0597C207.946 29.3377 211.473 37.8524 211.474 46.7309" fill="#FFD0CC"/>
<path d="M211.985 46.7279C211.986 53.3492 210.023 59.8219 206.345 65.3275C202.666 70.8332 197.438 75.1245 191.321 77.6588C185.204 80.193 178.473 80.8564 171.979 79.565C165.485 78.2736 159.519 75.0855 154.837 70.4038C150.155 65.7221 146.966 59.757 145.674 53.2631C144.382 46.7691 145.045 40.0378 147.579 33.9205C150.113 27.8032 154.403 22.5746 159.909 18.896C165.414 15.2174 171.887 13.2539 178.508 13.2539C187.387 13.2542 195.901 16.7813 202.179 23.0594C208.458 29.3375 211.985 37.8523 211.985 46.7309" fill="#FFD0CC"/>
<path d="M345.018 46.754C345.018 30.972 356.591 19.397 373.004 19.397C389.417 19.397 400.781 30.971 400.781 46.754C400.781 47.7304 400.393 48.6669 399.703 49.3575C399.013 50.0482 398.076 50.4364 397.1 50.437H357.939C357.643 50.4354 357.352 50.502 357.086 50.6316C356.82 50.7612 356.588 50.9504 356.408 51.1843C356.227 51.4183 356.103 51.6907 356.045 51.9805C355.987 52.2703 355.996 52.5695 356.073 52.855C358.289 60.589 364.773 64.855 373.004 64.855C379.257 64.855 383.786 63.042 386.846 59.155C387.061 58.8706 387.337 58.6387 387.655 58.4771C387.972 58.3154 388.323 58.2282 388.679 58.222H397.023C397.191 58.221 397.356 58.2623 397.504 58.342C397.651 58.4218 397.777 58.5374 397.868 58.6783C397.959 58.8191 398.014 58.9807 398.026 59.148C398.038 59.3154 398.008 59.4832 397.939 59.636C393.629 68.502 384.499 74.11 372.999 74.11C356.586 74.11 345.013 62.536 345.013 46.753M387.613 41.492C387.931 41.4901 388.244 41.4097 388.524 41.258C388.804 41.1062 389.043 40.8878 389.218 40.622C389.394 40.3562 389.501 40.0512 389.53 39.7341C389.56 39.417 389.51 39.0975 389.387 38.804C386.678 32.21 380.457 28.656 372.997 28.656C365.36 28.656 359.371 32.286 356.709 38.811C356.587 39.1045 356.539 39.4235 356.57 39.7399C356.6 40.0562 356.708 40.3602 356.884 40.6251C357.059 40.89 357.297 41.1076 357.577 41.2588C357.857 41.4099 358.169 41.49 358.487 41.492H387.613Z" fill="#3D3D3D"/>
<path d="M246.846 27.006C246.844 27.4877 246.661 27.951 246.334 28.3045C246.007 28.6581 245.559 28.8763 245.079 28.916C238.413 29.506 234.111 33.608 234.111 42.652V72.131C234.111 72.3839 234.062 72.6343 233.965 72.868C233.868 73.1017 233.727 73.314 233.548 73.4928C233.369 73.6716 233.157 73.8134 232.923 73.91C232.689 74.0067 232.439 74.0563 232.186 74.056H225.786C225.533 74.056 225.283 74.0062 225.05 73.9095C224.816 73.8127 224.604 73.6709 224.426 73.4921C224.247 73.3133 224.105 73.1011 224.009 72.8675C223.912 72.634 223.863 72.3837 223.863 72.131V42.652C223.863 27.702 232.217 20.136 244.783 19.403C245.047 19.3858 245.312 19.4228 245.561 19.5117C245.81 19.6006 246.038 19.7395 246.232 19.9199C246.425 20.1003 246.58 20.3184 246.686 20.5607C246.792 20.803 246.848 21.0645 246.849 21.329L246.846 27.006Z" fill="#3D3D3D"/>
<path d="M81.591 31.8229C81.591 25.2889 81.013 19.4019 74.479 19.4019C71.271 19.4019 71.338 21.2819 71.338 24.2409V50.2619H71.331C71.331 60.1909 66.043 64.6149 58.597 64.6149C51.367 64.6149 45.971 59.9759 45.971 50.2619V31.8199C45.971 25.2859 45.395 19.3989 38.859 19.3989C35.659 19.3989 35.722 21.2789 35.722 24.2379V50.2619C35.722 59.9749 30.222 64.6149 22.988 64.6149C15.54 64.6149 10.253 60.1909 10.253 50.2619V31.8229C10.253 25.2889 9.67498 19.4039 3.14298 19.4039C-0.0650234 19.3989 -2.34813e-05 21.2779 -2.34813e-05 24.2359V50.2619C-2.34813e-05 66.5569 9.49998 74.1119 22.016 74.1119C30.216 74.1119 37.123 70.4409 40.792 63.5359C44.463 70.4359 51.258 74.1119 59.57 74.1119C72.088 74.1119 81.582 66.5569 81.582 50.2619L81.591 31.8229Z" fill="#3D3D3D"/>
<path d="M285.171 19.397C278.887 19.3907 272.793 21.5575 267.924 25.53C267.659 23.8209 266.791 22.263 265.477 21.1384C264.164 20.0138 262.49 19.3968 260.761 19.399C257.723 19.464 257.787 21.329 257.787 24.236V91.582C257.787 91.8349 257.836 92.0853 257.933 92.319C258.03 92.5526 258.171 92.765 258.35 92.9438C258.529 93.1226 258.741 93.2643 258.975 93.361C259.209 93.4576 259.459 93.5072 259.712 93.507H266.112C266.365 93.5071 266.615 93.4574 266.849 93.3607C267.082 93.264 267.295 93.1222 267.473 92.9435C267.652 92.7647 267.794 92.5524 267.891 92.3188C267.987 92.0852 268.037 91.8348 268.037 91.582V68.061C271.445 70.8012 275.46 72.6844 279.746 73.5525C284.032 74.4207 288.463 74.2486 292.669 73.0506C296.874 71.8526 300.731 69.6636 303.916 66.6673C307.101 63.671 309.521 59.9547 310.973 55.83C312.426 51.7054 312.868 47.2926 312.262 42.9618C311.657 38.6311 310.023 34.5085 307.495 30.94C304.968 27.3714 301.622 24.4609 297.737 22.4524C293.853 20.444 289.544 19.3962 285.171 19.397ZM285.171 63.797C281.8 63.797 278.505 62.7975 275.703 60.9249C272.9 59.0523 270.716 56.3907 269.426 53.2767C268.136 50.1627 267.799 46.7361 268.456 43.4303C269.114 40.1244 270.737 37.0878 273.12 34.7045C275.504 32.3211 278.54 30.698 281.846 30.0404C285.152 29.3829 288.579 29.7204 291.693 31.0102C294.807 32.3001 297.468 34.4844 299.341 37.287C301.213 40.0895 302.213 43.3844 302.213 46.755C302.213 51.2747 300.417 55.6093 297.221 58.8052C294.025 62.0011 289.691 63.7967 285.171 63.797Z" fill="#3D3D3D"/>
<path d="M333.387 72.186V7.39198C333.399 6.42755 333.22 5.47029 332.86 4.57553C332.5 3.68076 331.966 2.86622 331.289 2.17898C330.612 1.49174 329.806 0.945416 328.917 0.571581C328.028 0.197745 327.073 0.0038083 326.109 0.000976562C323.073 0.0649766 323.135 1.93098 323.135 4.83598V72.186C323.135 72.6964 323.338 73.1859 323.699 73.5469C324.06 73.9078 324.55 74.1107 325.06 74.111H331.46C331.713 74.1111 331.963 74.0614 332.197 73.9647C332.43 73.868 332.643 73.7262 332.821 73.5474C333 73.3687 333.142 73.1564 333.239 72.9228C333.335 72.6892 333.385 72.4388 333.385 72.186" fill="#3D3D3D"/>
<path d="M207.086 71.1781L202.692 60.0691C205.963 54.2219 206.98 47.3798 205.551 40.8341C204.123 34.2885 200.347 28.4923 194.938 24.5396C189.528 20.587 182.859 18.7514 176.189 19.3793C169.518 20.0073 163.309 23.0553 158.732 27.9481C154.155 32.8409 151.528 39.2399 151.346 45.9371C151.164 52.6344 153.44 59.1665 157.745 64.3005C162.049 69.4345 168.084 72.8151 174.71 73.8041C181.337 74.7932 188.096 73.3223 193.712 69.6691L204.374 73.8861C204.753 74.036 205.167 74.0718 205.566 73.9891C205.965 73.9064 206.332 73.7088 206.62 73.4207C206.908 73.1326 207.105 72.7665 207.188 72.3675C207.271 71.9684 207.235 71.554 207.085 71.1751" fill="#1A35C9"/>
<path d="M190.349 46.754C190.349 49.0371 189.672 51.2691 188.403 53.1675C187.135 55.0659 185.332 56.5455 183.223 57.4192C181.113 58.293 178.792 58.5216 176.553 58.0761C174.314 57.6307 172.257 56.5313 170.642 54.9168C169.028 53.3023 167.928 51.2454 167.483 49.0061C167.037 46.7668 167.266 44.4457 168.14 42.3363C169.013 40.2269 170.493 38.4239 172.391 37.1555C174.29 35.887 176.522 35.21 178.805 35.21C181.867 35.21 184.803 36.4262 186.968 38.5911C189.133 40.756 190.349 43.6923 190.349 46.754Z" fill="white"/>
</svg>
